<mxfile host="app.diagrams.net" modified="2024-07-05T22:01:38.112Z" agent="Mozilla/5.0 (Macintosh; Intel Mac OS X 10_15_7) AppleWebKit/537.36 (KHTML, like Gecko) Chrome/126.0.0.0 Safari/537.36" etag="saLSGkzotEjZCfO2pkJV" version="24.6.4" type="device">
  <diagram name="Page-1" id="rMlBKtSe6zwPGS7Y6sFq">
    <mxGraphModel dx="4104" dy="2268" grid="1" gridSize="10" guides="1" tooltips="1" connect="1" arrows="1" fold="1" page="1" pageScale="1" pageWidth="850" pageHeight="1100" math="0" shadow="0">
      <root>
        <mxCell id="0" />
        <mxCell id="1" parent="0" />
        <mxCell id="ZLh_hg9RJonWW1onElEf-49" value="" style="edgeStyle=orthogonalEdgeStyle;rounded=0;orthogonalLoop=1;jettySize=auto;html=1;strokeWidth=12;fillColor=#dae8fc;strokeColor=#6c8ebf;" edge="1" parent="1" source="ZLh_hg9RJonWW1onElEf-1" target="ZLh_hg9RJonWW1onElEf-11">
          <mxGeometry relative="1" as="geometry" />
        </mxCell>
        <mxCell id="ZLh_hg9RJonWW1onElEf-1" value="&lt;font face=&quot;Times New Roman&quot; style=&quot;font-size: 38px;&quot;&gt;1x128x128&lt;/font&gt;" style="shape=cube;whiteSpace=wrap;html=1;boundedLbl=1;backgroundOutline=1;darkOpacity=0.05;darkOpacity2=0.1;size=10;fillColor=#f8cecc;strokeColor=#b85450;" vertex="1" parent="1">
          <mxGeometry width="240" height="240" as="geometry" />
        </mxCell>
        <mxCell id="ZLh_hg9RJonWW1onElEf-50" value="" style="edgeStyle=orthogonalEdgeStyle;rounded=0;orthogonalLoop=1;jettySize=auto;html=1;strokeWidth=12;fillColor=#f8cecc;strokeColor=#b85450;" edge="1" parent="1" source="ZLh_hg9RJonWW1onElEf-11" target="ZLh_hg9RJonWW1onElEf-22">
          <mxGeometry relative="1" as="geometry" />
        </mxCell>
        <mxCell id="ZLh_hg9RJonWW1onElEf-99" style="edgeStyle=orthogonalEdgeStyle;rounded=0;orthogonalLoop=1;jettySize=auto;html=1;strokeWidth=12;entryX=-0.005;entryY=0.499;entryDx=0;entryDy=0;entryPerimeter=0;" edge="1" parent="1" source="ZLh_hg9RJonWW1onElEf-11" target="ZLh_hg9RJonWW1onElEf-95">
          <mxGeometry relative="1" as="geometry">
            <mxPoint x="4460" y="120" as="targetPoint" />
          </mxGeometry>
        </mxCell>
        <mxCell id="ZLh_hg9RJonWW1onElEf-11" value="&lt;font face=&quot;Times New Roman&quot; style=&quot;font-size: 38px;&quot;&gt;64x128x128&lt;/font&gt;" style="shape=cube;whiteSpace=wrap;html=1;boundedLbl=1;backgroundOutline=1;darkOpacity=0.05;darkOpacity2=0.1;size=10;fillColor=#fff2cc;strokeColor=#d6b656;" vertex="1" parent="1">
          <mxGeometry x="320" width="240" height="240" as="geometry" />
        </mxCell>
        <mxCell id="ZLh_hg9RJonWW1onElEf-51" value="" style="edgeStyle=orthogonalEdgeStyle;rounded=0;orthogonalLoop=1;jettySize=auto;html=1;strokeWidth=12;fillColor=#dae8fc;strokeColor=#6c8ebf;" edge="1" parent="1" source="ZLh_hg9RJonWW1onElEf-22" target="ZLh_hg9RJonWW1onElEf-24">
          <mxGeometry relative="1" as="geometry" />
        </mxCell>
        <mxCell id="ZLh_hg9RJonWW1onElEf-22" value="&lt;font face=&quot;Times New Roman&quot; style=&quot;font-size: 38px;&quot;&gt;64x64x64&lt;/font&gt;" style="shape=cube;whiteSpace=wrap;html=1;boundedLbl=1;backgroundOutline=1;darkOpacity=0.05;darkOpacity2=0.1;size=10;fillColor=#fff2cc;strokeColor=#d6b656;" vertex="1" parent="1">
          <mxGeometry x="320" y="320" width="240" height="240" as="geometry" />
        </mxCell>
        <mxCell id="ZLh_hg9RJonWW1onElEf-52" value="" style="edgeStyle=orthogonalEdgeStyle;rounded=0;orthogonalLoop=1;jettySize=auto;html=1;strokeWidth=12;fillColor=#f8cecc;strokeColor=#b85450;" edge="1" parent="1" source="ZLh_hg9RJonWW1onElEf-24" target="ZLh_hg9RJonWW1onElEf-26">
          <mxGeometry relative="1" as="geometry" />
        </mxCell>
        <mxCell id="ZLh_hg9RJonWW1onElEf-92" style="edgeStyle=orthogonalEdgeStyle;rounded=0;orthogonalLoop=1;jettySize=auto;html=1;entryX=-0.004;entryY=0.5;entryDx=0;entryDy=0;entryPerimeter=0;strokeWidth=12;" edge="1" parent="1" source="ZLh_hg9RJonWW1onElEf-24" target="ZLh_hg9RJonWW1onElEf-87">
          <mxGeometry relative="1" as="geometry">
            <mxPoint x="3810" y="440" as="targetPoint" />
          </mxGeometry>
        </mxCell>
        <mxCell id="ZLh_hg9RJonWW1onElEf-24" value="&lt;font face=&quot;Times New Roman&quot; style=&quot;font-size: 38px;&quot;&gt;128x64x64&lt;/font&gt;" style="shape=cube;whiteSpace=wrap;html=1;boundedLbl=1;backgroundOutline=1;darkOpacity=0.05;darkOpacity2=0.1;size=10;fillColor=#fff2cc;strokeColor=#d6b656;" vertex="1" parent="1">
          <mxGeometry x="640" y="320" width="240" height="240" as="geometry" />
        </mxCell>
        <mxCell id="ZLh_hg9RJonWW1onElEf-53" value="" style="edgeStyle=orthogonalEdgeStyle;rounded=0;orthogonalLoop=1;jettySize=auto;html=1;strokeWidth=12;fillColor=#dae8fc;strokeColor=#6c8ebf;" edge="1" parent="1" source="ZLh_hg9RJonWW1onElEf-26" target="ZLh_hg9RJonWW1onElEf-28">
          <mxGeometry relative="1" as="geometry" />
        </mxCell>
        <mxCell id="ZLh_hg9RJonWW1onElEf-26" value="&lt;font face=&quot;Times New Roman&quot; style=&quot;font-size: 38px;&quot;&gt;128x32x32&lt;/font&gt;" style="shape=cube;whiteSpace=wrap;html=1;boundedLbl=1;backgroundOutline=1;darkOpacity=0.05;darkOpacity2=0.1;size=10;fillColor=#fff2cc;strokeColor=#d6b656;" vertex="1" parent="1">
          <mxGeometry x="640" y="639.77" width="240" height="240" as="geometry" />
        </mxCell>
        <mxCell id="ZLh_hg9RJonWW1onElEf-54" value="" style="edgeStyle=orthogonalEdgeStyle;rounded=0;orthogonalLoop=1;jettySize=auto;html=1;strokeWidth=12;fillColor=#f8cecc;strokeColor=#b85450;" edge="1" parent="1" source="ZLh_hg9RJonWW1onElEf-28" target="ZLh_hg9RJonWW1onElEf-30">
          <mxGeometry relative="1" as="geometry" />
        </mxCell>
        <mxCell id="ZLh_hg9RJonWW1onElEf-79" style="edgeStyle=orthogonalEdgeStyle;rounded=0;orthogonalLoop=1;jettySize=auto;html=1;strokeWidth=12;" edge="1" parent="1" source="ZLh_hg9RJonWW1onElEf-28" target="ZLh_hg9RJonWW1onElEf-77">
          <mxGeometry relative="1" as="geometry" />
        </mxCell>
        <mxCell id="ZLh_hg9RJonWW1onElEf-28" value="&lt;font face=&quot;Times New Roman&quot; style=&quot;font-size: 38px;&quot;&gt;256x32x32&lt;/font&gt;" style="shape=cube;whiteSpace=wrap;html=1;boundedLbl=1;backgroundOutline=1;darkOpacity=0.05;darkOpacity2=0.1;size=10;fillColor=#fff2cc;strokeColor=#d6b656;" vertex="1" parent="1">
          <mxGeometry x="960" y="639.77" width="240" height="240" as="geometry" />
        </mxCell>
        <mxCell id="ZLh_hg9RJonWW1onElEf-55" value="" style="edgeStyle=orthogonalEdgeStyle;rounded=0;orthogonalLoop=1;jettySize=auto;html=1;strokeWidth=12;fillColor=#dae8fc;strokeColor=#6c8ebf;" edge="1" parent="1" source="ZLh_hg9RJonWW1onElEf-30" target="ZLh_hg9RJonWW1onElEf-32">
          <mxGeometry relative="1" as="geometry" />
        </mxCell>
        <mxCell id="ZLh_hg9RJonWW1onElEf-30" value="&lt;font face=&quot;Times New Roman&quot; style=&quot;font-size: 38px;&quot;&gt;256x16x16&lt;/font&gt;" style="shape=cube;whiteSpace=wrap;html=1;boundedLbl=1;backgroundOutline=1;darkOpacity=0.05;darkOpacity2=0.1;size=10;fillColor=#fff2cc;strokeColor=#d6b656;" vertex="1" parent="1">
          <mxGeometry x="960" y="959.54" width="240" height="240" as="geometry" />
        </mxCell>
        <mxCell id="ZLh_hg9RJonWW1onElEf-56" value="" style="edgeStyle=orthogonalEdgeStyle;rounded=0;orthogonalLoop=1;jettySize=auto;html=1;strokeWidth=12;fillColor=#f8cecc;strokeColor=#b85450;" edge="1" parent="1" source="ZLh_hg9RJonWW1onElEf-32" target="ZLh_hg9RJonWW1onElEf-34">
          <mxGeometry relative="1" as="geometry" />
        </mxCell>
        <mxCell id="ZLh_hg9RJonWW1onElEf-70" style="edgeStyle=orthogonalEdgeStyle;rounded=0;orthogonalLoop=1;jettySize=auto;html=1;strokeWidth=12;" edge="1" parent="1" source="ZLh_hg9RJonWW1onElEf-32" target="ZLh_hg9RJonWW1onElEf-68">
          <mxGeometry relative="1" as="geometry" />
        </mxCell>
        <mxCell id="ZLh_hg9RJonWW1onElEf-32" value="&lt;font face=&quot;Times New Roman&quot; style=&quot;font-size: 38px;&quot;&gt;512x16x16&lt;/font&gt;" style="shape=cube;whiteSpace=wrap;html=1;boundedLbl=1;backgroundOutline=1;darkOpacity=0.05;darkOpacity2=0.1;size=10;fillColor=#fff2cc;strokeColor=#d6b656;" vertex="1" parent="1">
          <mxGeometry x="1280" y="959.54" width="240" height="240" as="geometry" />
        </mxCell>
        <mxCell id="ZLh_hg9RJonWW1onElEf-57" value="" style="edgeStyle=orthogonalEdgeStyle;rounded=0;orthogonalLoop=1;jettySize=auto;html=1;strokeWidth=12;fillColor=#dae8fc;strokeColor=#6c8ebf;" edge="1" parent="1" source="ZLh_hg9RJonWW1onElEf-34" target="ZLh_hg9RJonWW1onElEf-36">
          <mxGeometry relative="1" as="geometry" />
        </mxCell>
        <mxCell id="ZLh_hg9RJonWW1onElEf-34" value="&lt;font face=&quot;Times New Roman&quot; style=&quot;font-size: 38px;&quot;&gt;512x8x8&lt;/font&gt;" style="shape=cube;whiteSpace=wrap;html=1;boundedLbl=1;backgroundOutline=1;darkOpacity=0.05;darkOpacity2=0.1;size=10;fillColor=#fff2cc;strokeColor=#d6b656;" vertex="1" parent="1">
          <mxGeometry x="1280" y="1279.31" width="240" height="240" as="geometry" />
        </mxCell>
        <mxCell id="ZLh_hg9RJonWW1onElEf-58" value="" style="edgeStyle=orthogonalEdgeStyle;rounded=0;orthogonalLoop=1;jettySize=auto;html=1;strokeWidth=12;fillColor=#f8cecc;strokeColor=#b85450;" edge="1" parent="1" source="ZLh_hg9RJonWW1onElEf-36" target="ZLh_hg9RJonWW1onElEf-43">
          <mxGeometry relative="1" as="geometry" />
        </mxCell>
        <mxCell id="ZLh_hg9RJonWW1onElEf-61" value="" style="edgeStyle=orthogonalEdgeStyle;rounded=0;orthogonalLoop=1;jettySize=auto;html=1;strokeWidth=12;" edge="1" parent="1" source="ZLh_hg9RJonWW1onElEf-36" target="ZLh_hg9RJonWW1onElEf-60">
          <mxGeometry relative="1" as="geometry" />
        </mxCell>
        <mxCell id="ZLh_hg9RJonWW1onElEf-36" value="&lt;font face=&quot;Times New Roman&quot; style=&quot;font-size: 38px;&quot;&gt;1024x8x8&lt;/font&gt;" style="shape=cube;whiteSpace=wrap;html=1;boundedLbl=1;backgroundOutline=1;darkOpacity=0.05;darkOpacity2=0.1;size=10;fillColor=#fff2cc;strokeColor=#d6b656;" vertex="1" parent="1">
          <mxGeometry x="1600" y="1279.31" width="240" height="240" as="geometry" />
        </mxCell>
        <mxCell id="ZLh_hg9RJonWW1onElEf-59" value="" style="edgeStyle=orthogonalEdgeStyle;rounded=0;orthogonalLoop=1;jettySize=auto;html=1;strokeWidth=12;fillColor=#dae8fc;strokeColor=#6c8ebf;" edge="1" parent="1" source="ZLh_hg9RJonWW1onElEf-43" target="ZLh_hg9RJonWW1onElEf-45">
          <mxGeometry relative="1" as="geometry" />
        </mxCell>
        <mxCell id="ZLh_hg9RJonWW1onElEf-43" value="&lt;font face=&quot;Times New Roman&quot; style=&quot;font-size: 38px;&quot;&gt;1024x4x4&lt;/font&gt;" style="shape=cube;whiteSpace=wrap;html=1;boundedLbl=1;backgroundOutline=1;darkOpacity=0.05;darkOpacity2=0.1;size=10;fillColor=#fff2cc;strokeColor=#d6b656;" vertex="1" parent="1">
          <mxGeometry x="1600" y="1600" width="240" height="240" as="geometry" />
        </mxCell>
        <mxCell id="ZLh_hg9RJonWW1onElEf-62" value="" style="edgeStyle=orthogonalEdgeStyle;rounded=0;orthogonalLoop=1;jettySize=auto;html=1;strokeWidth=12;" edge="1" parent="1" source="ZLh_hg9RJonWW1onElEf-45" target="ZLh_hg9RJonWW1onElEf-60">
          <mxGeometry relative="1" as="geometry" />
        </mxCell>
        <mxCell id="ZLh_hg9RJonWW1onElEf-64" style="edgeStyle=orthogonalEdgeStyle;rounded=0;orthogonalLoop=1;jettySize=auto;html=1;fillColor=#e1d5e7;strokeColor=#9673a6;strokeWidth=12;" edge="1" parent="1" source="ZLh_hg9RJonWW1onElEf-45">
          <mxGeometry relative="1" as="geometry">
            <mxPoint x="2360" y="1520" as="targetPoint" />
          </mxGeometry>
        </mxCell>
        <mxCell id="ZLh_hg9RJonWW1onElEf-45" value="&lt;font face=&quot;Times New Roman&quot; style=&quot;font-size: 38px;&quot;&gt;2048x4x4&lt;/font&gt;" style="shape=cube;whiteSpace=wrap;html=1;boundedLbl=1;backgroundOutline=1;darkOpacity=0.05;darkOpacity2=0.1;size=10;fillColor=#dae8fc;strokeColor=#6c8ebf;" vertex="1" parent="1">
          <mxGeometry x="1920" y="1600" width="240" height="240" as="geometry" />
        </mxCell>
        <mxCell id="ZLh_hg9RJonWW1onElEf-65" value="" style="edgeStyle=orthogonalEdgeStyle;rounded=0;orthogonalLoop=1;jettySize=auto;html=1;strokeWidth=12;" edge="1" parent="1" source="ZLh_hg9RJonWW1onElEf-60" target="ZLh_hg9RJonWW1onElEf-63">
          <mxGeometry relative="1" as="geometry" />
        </mxCell>
        <mxCell id="ZLh_hg9RJonWW1onElEf-60" value="&lt;div style=&quot;font-size: 38px;&quot;&gt;&lt;font face=&quot;Times New Roman&quot; style=&quot;font-size: 38px;&quot;&gt;Attention Gate&lt;/font&gt;&lt;/div&gt;&lt;font face=&quot;lxp_hzR1sJChFSbWULdc&quot; style=&quot;font-size: 38px;&quot;&gt;1024x8x8&lt;/font&gt;" style="shape=cube;whiteSpace=wrap;html=1;boundedLbl=1;backgroundOutline=1;darkOpacity=0.05;darkOpacity2=0.1;size=10;fillColor=#d5e8d4;strokeColor=#82b366;" vertex="1" parent="1">
          <mxGeometry x="1920" y="1279.31" width="240" height="240" as="geometry" />
        </mxCell>
        <mxCell id="ZLh_hg9RJonWW1onElEf-67" value="" style="edgeStyle=orthogonalEdgeStyle;rounded=0;orthogonalLoop=1;jettySize=auto;html=1;fillColor=#dae8fc;strokeColor=#6c8ebf;strokeWidth=12;" edge="1" parent="1" source="ZLh_hg9RJonWW1onElEf-63" target="ZLh_hg9RJonWW1onElEf-66">
          <mxGeometry relative="1" as="geometry" />
        </mxCell>
        <mxCell id="ZLh_hg9RJonWW1onElEf-63" value="&lt;div&gt;&lt;span style=&quot;background-color: initial;&quot;&gt;&lt;font face=&quot;Times New Roman&quot; style=&quot;font-size: 38px;&quot;&gt;2048x8x8&lt;/font&gt;&lt;/span&gt;&lt;br&gt;&lt;/div&gt;" style="shape=cube;whiteSpace=wrap;html=1;boundedLbl=1;backgroundOutline=1;darkOpacity=0.05;darkOpacity2=0.1;size=10;fillColor=#e1d5e7;strokeColor=#9673a6;" vertex="1" parent="1">
          <mxGeometry x="2240" y="1279.31" width="240" height="240" as="geometry" />
        </mxCell>
        <mxCell id="ZLh_hg9RJonWW1onElEf-69" value="" style="edgeStyle=orthogonalEdgeStyle;rounded=0;orthogonalLoop=1;jettySize=auto;html=1;strokeWidth=12;" edge="1" parent="1" source="ZLh_hg9RJonWW1onElEf-66" target="ZLh_hg9RJonWW1onElEf-68">
          <mxGeometry relative="1" as="geometry" />
        </mxCell>
        <mxCell id="ZLh_hg9RJonWW1onElEf-66" value="&lt;div&gt;&lt;span style=&quot;background-color: initial;&quot;&gt;&lt;font face=&quot;Times New Roman&quot; style=&quot;font-size: 38px;&quot;&gt;1024x8x8&lt;/font&gt;&lt;/span&gt;&lt;br&gt;&lt;/div&gt;" style="shape=cube;whiteSpace=wrap;html=1;boundedLbl=1;backgroundOutline=1;darkOpacity=0.05;darkOpacity2=0.1;size=10;fillColor=#e1d5e7;strokeColor=#9673a6;" vertex="1" parent="1">
          <mxGeometry x="2560" y="1279.31" width="240" height="240" as="geometry" />
        </mxCell>
        <mxCell id="ZLh_hg9RJonWW1onElEf-72" value="" style="edgeStyle=orthogonalEdgeStyle;rounded=0;orthogonalLoop=1;jettySize=auto;html=1;strokeWidth=12;" edge="1" parent="1" source="ZLh_hg9RJonWW1onElEf-68" target="ZLh_hg9RJonWW1onElEf-71">
          <mxGeometry relative="1" as="geometry" />
        </mxCell>
        <mxCell id="ZLh_hg9RJonWW1onElEf-68" value="&lt;div style=&quot;font-size: 38px;&quot;&gt;&lt;font face=&quot;Times New Roman&quot; style=&quot;font-size: 38px;&quot;&gt;Attention Gate&lt;/font&gt;&lt;/div&gt;&lt;font face=&quot;Times New Roman&quot; style=&quot;font-size: 38px;&quot;&gt;512x16x16&lt;/font&gt;" style="shape=cube;whiteSpace=wrap;html=1;boundedLbl=1;backgroundOutline=1;darkOpacity=0.05;darkOpacity2=0.1;size=10;fillColor=#d5e8d4;strokeColor=#82b366;" vertex="1" parent="1">
          <mxGeometry x="2560" y="959.54" width="240" height="240" as="geometry" />
        </mxCell>
        <mxCell id="ZLh_hg9RJonWW1onElEf-75" value="" style="edgeStyle=orthogonalEdgeStyle;rounded=0;orthogonalLoop=1;jettySize=auto;html=1;fillColor=#dae8fc;strokeColor=#6c8ebf;strokeWidth=12;" edge="1" parent="1" source="ZLh_hg9RJonWW1onElEf-71" target="ZLh_hg9RJonWW1onElEf-74">
          <mxGeometry relative="1" as="geometry" />
        </mxCell>
        <mxCell id="ZLh_hg9RJonWW1onElEf-71" value="&lt;div&gt;&lt;span style=&quot;background-color: initial;&quot;&gt;&lt;font face=&quot;Times New Roman&quot; style=&quot;font-size: 38px;&quot;&gt;1024x16x16&lt;/font&gt;&lt;/span&gt;&lt;br&gt;&lt;/div&gt;" style="shape=cube;whiteSpace=wrap;html=1;boundedLbl=1;backgroundOutline=1;darkOpacity=0.05;darkOpacity2=0.1;size=10;fillColor=#e1d5e7;strokeColor=#9673a6;" vertex="1" parent="1">
          <mxGeometry x="2880" y="959.54" width="240" height="240" as="geometry" />
        </mxCell>
        <mxCell id="ZLh_hg9RJonWW1onElEf-73" style="edgeStyle=orthogonalEdgeStyle;rounded=0;orthogonalLoop=1;jettySize=auto;html=1;fillColor=#e1d5e7;strokeColor=#9673a6;strokeWidth=12;" edge="1" parent="1" source="ZLh_hg9RJonWW1onElEf-66" target="ZLh_hg9RJonWW1onElEf-71">
          <mxGeometry relative="1" as="geometry">
            <mxPoint x="3005" y="1200" as="targetPoint" />
            <Array as="points">
              <mxPoint x="3000" y="1399" />
            </Array>
          </mxGeometry>
        </mxCell>
        <mxCell id="ZLh_hg9RJonWW1onElEf-78" value="" style="edgeStyle=orthogonalEdgeStyle;rounded=0;orthogonalLoop=1;jettySize=auto;html=1;strokeWidth=12;" edge="1" parent="1" source="ZLh_hg9RJonWW1onElEf-74" target="ZLh_hg9RJonWW1onElEf-77">
          <mxGeometry relative="1" as="geometry" />
        </mxCell>
        <mxCell id="ZLh_hg9RJonWW1onElEf-74" value="&lt;div&gt;&lt;span style=&quot;background-color: initial;&quot;&gt;&lt;font face=&quot;Times New Roman&quot; style=&quot;font-size: 38px;&quot;&gt;512x16x16&lt;/font&gt;&lt;/span&gt;&lt;br&gt;&lt;/div&gt;" style="shape=cube;whiteSpace=wrap;html=1;boundedLbl=1;backgroundOutline=1;darkOpacity=0.05;darkOpacity2=0.1;size=10;fillColor=#e1d5e7;strokeColor=#9673a6;" vertex="1" parent="1">
          <mxGeometry x="3200" y="959.54" width="240" height="240" as="geometry" />
        </mxCell>
        <mxCell id="ZLh_hg9RJonWW1onElEf-76" style="edgeStyle=orthogonalEdgeStyle;rounded=0;orthogonalLoop=1;jettySize=auto;html=1;fillColor=#e1d5e7;strokeColor=#9673a6;strokeWidth=12;" edge="1" parent="1">
          <mxGeometry relative="1" as="geometry">
            <mxPoint x="3440" y="1078.77" as="sourcePoint" />
            <mxPoint x="3640" y="879.77" as="targetPoint" />
            <Array as="points">
              <mxPoint x="3640" y="1078.77" />
            </Array>
          </mxGeometry>
        </mxCell>
        <mxCell id="ZLh_hg9RJonWW1onElEf-81" value="" style="edgeStyle=orthogonalEdgeStyle;rounded=0;orthogonalLoop=1;jettySize=auto;html=1;strokeWidth=12;" edge="1" parent="1" source="ZLh_hg9RJonWW1onElEf-77" target="ZLh_hg9RJonWW1onElEf-80">
          <mxGeometry relative="1" as="geometry" />
        </mxCell>
        <mxCell id="ZLh_hg9RJonWW1onElEf-77" value="&lt;div style=&quot;font-size: 38px;&quot;&gt;&lt;span style=&quot;background-color: initial;&quot;&gt;&lt;font face=&quot;Times New Roman&quot; style=&quot;font-size: 38px;&quot;&gt;Attention Gate&lt;/font&gt;&lt;/span&gt;&lt;/div&gt;&lt;div style=&quot;font-size: 38px;&quot;&gt;&lt;span style=&quot;background-color: initial;&quot;&gt;&lt;font face=&quot;Times New Roman&quot; style=&quot;font-size: 38px;&quot;&gt;256x32x32&lt;/font&gt;&lt;/span&gt;&lt;br&gt;&lt;/div&gt;" style="shape=cube;whiteSpace=wrap;html=1;boundedLbl=1;backgroundOutline=1;darkOpacity=0.05;darkOpacity2=0.1;size=10;fillColor=#d5e8d4;strokeColor=#82b366;" vertex="1" parent="1">
          <mxGeometry x="3200" y="639.77" width="240" height="240" as="geometry" />
        </mxCell>
        <mxCell id="ZLh_hg9RJonWW1onElEf-83" value="" style="edgeStyle=orthogonalEdgeStyle;rounded=0;orthogonalLoop=1;jettySize=auto;html=1;fillColor=#dae8fc;strokeColor=#6c8ebf;strokeWidth=12;" edge="1" parent="1" source="ZLh_hg9RJonWW1onElEf-80" target="ZLh_hg9RJonWW1onElEf-82">
          <mxGeometry relative="1" as="geometry" />
        </mxCell>
        <mxCell id="ZLh_hg9RJonWW1onElEf-80" value="&lt;div&gt;&lt;span style=&quot;background-color: initial;&quot;&gt;&lt;font face=&quot;Times New Roman&quot; style=&quot;font-size: 38px;&quot;&gt;512x32x32&lt;/font&gt;&lt;/span&gt;&lt;br&gt;&lt;/div&gt;" style="shape=cube;whiteSpace=wrap;html=1;boundedLbl=1;backgroundOutline=1;darkOpacity=0.05;darkOpacity2=0.1;size=10;fillColor=#e1d5e7;strokeColor=#9673a6;" vertex="1" parent="1">
          <mxGeometry x="3520" y="639.77" width="240" height="240" as="geometry" />
        </mxCell>
        <mxCell id="ZLh_hg9RJonWW1onElEf-102" value="" style="edgeStyle=orthogonalEdgeStyle;rounded=0;orthogonalLoop=1;jettySize=auto;html=1;strokeWidth=12;" edge="1" parent="1" source="ZLh_hg9RJonWW1onElEf-82" target="ZLh_hg9RJonWW1onElEf-87">
          <mxGeometry relative="1" as="geometry" />
        </mxCell>
        <mxCell id="ZLh_hg9RJonWW1onElEf-82" value="&lt;div&gt;&lt;span style=&quot;background-color: initial;&quot;&gt;&lt;font face=&quot;Times New Roman&quot; style=&quot;font-size: 38px;&quot;&gt;512x32x32&lt;/font&gt;&lt;/span&gt;&lt;br&gt;&lt;/div&gt;" style="shape=cube;whiteSpace=wrap;html=1;boundedLbl=1;backgroundOutline=1;darkOpacity=0.05;darkOpacity2=0.1;size=10;fillColor=#e1d5e7;strokeColor=#9673a6;" vertex="1" parent="1">
          <mxGeometry x="3840" y="639.77" width="240" height="240" as="geometry" />
        </mxCell>
        <mxCell id="ZLh_hg9RJonWW1onElEf-85" style="edgeStyle=orthogonalEdgeStyle;rounded=0;orthogonalLoop=1;jettySize=auto;html=1;fillColor=#e1d5e7;strokeColor=#9673a6;strokeWidth=12;" edge="1" parent="1">
          <mxGeometry relative="1" as="geometry">
            <mxPoint x="4080" y="759" as="sourcePoint" />
            <mxPoint x="4280" y="560" as="targetPoint" />
            <Array as="points">
              <mxPoint x="4280" y="759" />
            </Array>
          </mxGeometry>
        </mxCell>
        <mxCell id="ZLh_hg9RJonWW1onElEf-86" value="" style="edgeStyle=orthogonalEdgeStyle;rounded=0;orthogonalLoop=1;jettySize=auto;html=1;strokeWidth=12;" edge="1" parent="1" source="ZLh_hg9RJonWW1onElEf-87" target="ZLh_hg9RJonWW1onElEf-89">
          <mxGeometry relative="1" as="geometry" />
        </mxCell>
        <mxCell id="ZLh_hg9RJonWW1onElEf-87" value="&lt;div style=&quot;font-size: 38px;&quot;&gt;&lt;font face=&quot;Times New Roman&quot; style=&quot;font-size: 38px;&quot;&gt;Attention Gate&lt;/font&gt;&lt;/div&gt;&lt;font face=&quot;VHt6iLG-GfsvgKSb0VF1&quot; style=&quot;font-size: 38px;&quot;&gt;128x64x64&lt;/font&gt;" style="shape=cube;whiteSpace=wrap;html=1;boundedLbl=1;backgroundOutline=1;darkOpacity=0.05;darkOpacity2=0.1;size=10;fillColor=#d5e8d4;strokeColor=#82b366;" vertex="1" parent="1">
          <mxGeometry x="3840" y="320" width="240" height="240" as="geometry" />
        </mxCell>
        <mxCell id="ZLh_hg9RJonWW1onElEf-88" value="" style="edgeStyle=orthogonalEdgeStyle;rounded=0;orthogonalLoop=1;jettySize=auto;html=1;fillColor=#dae8fc;strokeColor=#6c8ebf;strokeWidth=12;" edge="1" parent="1" source="ZLh_hg9RJonWW1onElEf-89" target="ZLh_hg9RJonWW1onElEf-90">
          <mxGeometry relative="1" as="geometry" />
        </mxCell>
        <mxCell id="ZLh_hg9RJonWW1onElEf-89" value="&lt;div&gt;&lt;font face=&quot;Times New Roman&quot; style=&quot;font-size: 38px;&quot;&gt;256x64x64&lt;/font&gt;&lt;/div&gt;" style="shape=cube;whiteSpace=wrap;html=1;boundedLbl=1;backgroundOutline=1;darkOpacity=0.05;darkOpacity2=0.1;size=10;fillColor=#e1d5e7;strokeColor=#9673a6;" vertex="1" parent="1">
          <mxGeometry x="4160" y="320" width="240" height="240" as="geometry" />
        </mxCell>
        <mxCell id="ZLh_hg9RJonWW1onElEf-103" value="" style="edgeStyle=orthogonalEdgeStyle;rounded=0;orthogonalLoop=1;jettySize=auto;html=1;strokeWidth=12;" edge="1" parent="1" source="ZLh_hg9RJonWW1onElEf-90" target="ZLh_hg9RJonWW1onElEf-95">
          <mxGeometry relative="1" as="geometry" />
        </mxCell>
        <mxCell id="ZLh_hg9RJonWW1onElEf-90" value="&lt;div&gt;&lt;span style=&quot;background-color: initial;&quot;&gt;&lt;font face=&quot;Times New Roman&quot; style=&quot;font-size: 38px;&quot;&gt;128x64x64&lt;/font&gt;&lt;/span&gt;&lt;br&gt;&lt;/div&gt;" style="shape=cube;whiteSpace=wrap;html=1;boundedLbl=1;backgroundOutline=1;darkOpacity=0.05;darkOpacity2=0.1;size=10;fillColor=#e1d5e7;strokeColor=#9673a6;" vertex="1" parent="1">
          <mxGeometry x="4480" y="320" width="240" height="240" as="geometry" />
        </mxCell>
        <mxCell id="ZLh_hg9RJonWW1onElEf-93" style="edgeStyle=orthogonalEdgeStyle;rounded=0;orthogonalLoop=1;jettySize=auto;html=1;fillColor=#e1d5e7;strokeColor=#9673a6;strokeWidth=12;" edge="1" parent="1">
          <mxGeometry relative="1" as="geometry">
            <mxPoint x="4720" y="439" as="sourcePoint" />
            <mxPoint x="4920" y="240" as="targetPoint" />
            <Array as="points">
              <mxPoint x="4920" y="439" />
            </Array>
          </mxGeometry>
        </mxCell>
        <mxCell id="ZLh_hg9RJonWW1onElEf-94" value="" style="edgeStyle=orthogonalEdgeStyle;rounded=0;orthogonalLoop=1;jettySize=auto;html=1;strokeWidth=12;" edge="1" parent="1" source="ZLh_hg9RJonWW1onElEf-95" target="ZLh_hg9RJonWW1onElEf-97">
          <mxGeometry relative="1" as="geometry" />
        </mxCell>
        <mxCell id="ZLh_hg9RJonWW1onElEf-95" value="&lt;div style=&quot;font-size: 38px;&quot;&gt;&lt;font face=&quot;Times New Roman&quot; style=&quot;font-size: 38px;&quot;&gt;Attention Gate&lt;/font&gt;&lt;/div&gt;&lt;font face=&quot;FZDsGS5MrIlG1O1SrOyC&quot; style=&quot;font-size: 38px;&quot;&gt;64x128x128&lt;/font&gt;" style="shape=cube;whiteSpace=wrap;html=1;boundedLbl=1;backgroundOutline=1;darkOpacity=0.05;darkOpacity2=0.1;size=10;fillColor=#d5e8d4;strokeColor=#82b366;" vertex="1" parent="1">
          <mxGeometry x="4480" width="240" height="240" as="geometry" />
        </mxCell>
        <mxCell id="ZLh_hg9RJonWW1onElEf-96" value="" style="edgeStyle=orthogonalEdgeStyle;rounded=0;orthogonalLoop=1;jettySize=auto;html=1;fillColor=#dae8fc;strokeColor=#6c8ebf;strokeWidth=12;" edge="1" parent="1" source="ZLh_hg9RJonWW1onElEf-97" target="ZLh_hg9RJonWW1onElEf-98">
          <mxGeometry relative="1" as="geometry" />
        </mxCell>
        <mxCell id="ZLh_hg9RJonWW1onElEf-97" value="&lt;div&gt;&lt;font face=&quot;Times New Roman&quot; style=&quot;font-size: 38px;&quot;&gt;128x128x128&lt;/font&gt;&lt;/div&gt;" style="shape=cube;whiteSpace=wrap;html=1;boundedLbl=1;backgroundOutline=1;darkOpacity=0.05;darkOpacity2=0.1;size=10;fillColor=#e1d5e7;strokeColor=#9673a6;" vertex="1" parent="1">
          <mxGeometry x="4800" width="240" height="240" as="geometry" />
        </mxCell>
        <mxCell id="ZLh_hg9RJonWW1onElEf-101" value="" style="edgeStyle=orthogonalEdgeStyle;rounded=0;orthogonalLoop=1;jettySize=auto;html=1;strokeWidth=12;fillColor=#d5e8d4;strokeColor=#82b366;" edge="1" parent="1" source="ZLh_hg9RJonWW1onElEf-98" target="ZLh_hg9RJonWW1onElEf-100">
          <mxGeometry relative="1" as="geometry" />
        </mxCell>
        <mxCell id="ZLh_hg9RJonWW1onElEf-98" value="&lt;div&gt;&lt;span style=&quot;background-color: initial;&quot;&gt;&lt;font face=&quot;Times New Roman&quot; style=&quot;font-size: 38px;&quot;&gt;64x128x128&lt;/font&gt;&lt;/span&gt;&lt;br&gt;&lt;/div&gt;" style="shape=cube;whiteSpace=wrap;html=1;boundedLbl=1;backgroundOutline=1;darkOpacity=0.05;darkOpacity2=0.1;size=10;fillColor=#e1d5e7;strokeColor=#9673a6;" vertex="1" parent="1">
          <mxGeometry x="5120" width="240" height="240" as="geometry" />
        </mxCell>
        <mxCell id="ZLh_hg9RJonWW1onElEf-100" value="&lt;div&gt;&lt;span style=&quot;background-color: initial;&quot;&gt;&lt;font face=&quot;Times New Roman&quot; style=&quot;font-size: 38px;&quot;&gt;1x128x128&lt;/font&gt;&lt;/span&gt;&lt;br&gt;&lt;/div&gt;" style="shape=cube;whiteSpace=wrap;html=1;boundedLbl=1;backgroundOutline=1;darkOpacity=0.05;darkOpacity2=0.1;size=10;fillColor=#f8cecc;strokeColor=#b85450;" vertex="1" parent="1">
          <mxGeometry x="5440" width="240" height="240" as="geometry" />
        </mxCell>
        <mxCell id="ZLh_hg9RJonWW1onElEf-104" value="" style="edgeStyle=orthogonalEdgeStyle;rounded=0;orthogonalLoop=1;jettySize=auto;html=1;strokeWidth=12;fillColor=#dae8fc;strokeColor=#6c8ebf;" edge="1" parent="1">
          <mxGeometry relative="1" as="geometry">
            <mxPoint x="3900" y="1569.23" as="sourcePoint" />
            <mxPoint x="3980" y="1569.23" as="targetPoint" />
          </mxGeometry>
        </mxCell>
        <mxCell id="ZLh_hg9RJonWW1onElEf-105" value="&lt;font face=&quot;Times New Roman&quot; style=&quot;font-size: 38px;&quot;&gt;ResConvBlock&lt;/font&gt;" style="text;html=1;align=center;verticalAlign=middle;resizable=0;points=[];autosize=1;strokeColor=none;fillColor=none;" vertex="1" parent="1">
          <mxGeometry x="3989" y="1540" width="250" height="60" as="geometry" />
        </mxCell>
        <mxCell id="ZLh_hg9RJonWW1onElEf-106" value="" style="edgeStyle=orthogonalEdgeStyle;rounded=0;orthogonalLoop=1;jettySize=auto;html=1;strokeWidth=12;fillColor=#f8cecc;strokeColor=#b85450;" edge="1" parent="1">
          <mxGeometry relative="1" as="geometry">
            <mxPoint x="3900" y="1650.23" as="sourcePoint" />
            <mxPoint x="3980" y="1650.23" as="targetPoint" />
          </mxGeometry>
        </mxCell>
        <mxCell id="ZLh_hg9RJonWW1onElEf-107" value="&lt;font face=&quot;Times New Roman&quot; style=&quot;font-size: 38px;&quot;&gt;MaxPool2d&lt;/font&gt;" style="text;html=1;align=center;verticalAlign=middle;resizable=0;points=[];autosize=1;strokeColor=none;fillColor=none;" vertex="1" parent="1">
          <mxGeometry x="3988" y="1620" width="200" height="60" as="geometry" />
        </mxCell>
        <mxCell id="ZLh_hg9RJonWW1onElEf-108" value="" style="edgeStyle=orthogonalEdgeStyle;rounded=0;orthogonalLoop=1;jettySize=auto;html=1;strokeWidth=12;fillColor=#e1d5e7;strokeColor=#9673a6;" edge="1" parent="1">
          <mxGeometry relative="1" as="geometry">
            <mxPoint x="3900" y="1730.23" as="sourcePoint" />
            <mxPoint x="3980" y="1730.23" as="targetPoint" />
          </mxGeometry>
        </mxCell>
        <mxCell id="ZLh_hg9RJonWW1onElEf-109" value="&lt;font face=&quot;Times New Roman&quot;&gt;&lt;span style=&quot;font-size: 38px;&quot;&gt;ConvTranspose2d&lt;/span&gt;&lt;/font&gt;" style="text;html=1;align=center;verticalAlign=middle;resizable=0;points=[];autosize=1;strokeColor=none;fillColor=none;" vertex="1" parent="1">
          <mxGeometry x="3986" y="1700" width="300" height="60" as="geometry" />
        </mxCell>
        <mxCell id="ZLh_hg9RJonWW1onElEf-110" value="" style="edgeStyle=orthogonalEdgeStyle;rounded=0;orthogonalLoop=1;jettySize=auto;html=1;strokeWidth=12;" edge="1" parent="1">
          <mxGeometry relative="1" as="geometry">
            <mxPoint x="3900" y="1490.23" as="sourcePoint" />
            <mxPoint x="3980" y="1490.23" as="targetPoint" />
          </mxGeometry>
        </mxCell>
        <mxCell id="ZLh_hg9RJonWW1onElEf-111" value="&lt;font face=&quot;Times New Roman&quot; style=&quot;font-size: 38px;&quot;&gt;Concatenation&lt;/font&gt;" style="text;html=1;align=center;verticalAlign=middle;resizable=0;points=[];autosize=1;strokeColor=none;fillColor=none;" vertex="1" parent="1">
          <mxGeometry x="3988" y="1460" width="240" height="60" as="geometry" />
        </mxCell>
        <mxCell id="ZLh_hg9RJonWW1onElEf-112" value="&lt;div&gt;&lt;span style=&quot;background-color: initial;&quot;&gt;&lt;font face=&quot;Times New Roman&quot; style=&quot;font-size: 38px;&quot;&gt;Input/output&lt;/font&gt;&lt;/span&gt;&lt;br&gt;&lt;/div&gt;&lt;div&gt;&lt;span style=&quot;background-color: initial;&quot;&gt;&lt;font face=&quot;Times New Roman&quot; style=&quot;font-size: 38px;&quot;&gt;tensors&lt;/font&gt;&lt;/span&gt;&lt;/div&gt;" style="shape=cube;whiteSpace=wrap;html=1;boundedLbl=1;backgroundOutline=1;darkOpacity=0.05;darkOpacity2=0.1;size=10;fillColor=#f8cecc;strokeColor=#b85450;" vertex="1" parent="1">
          <mxGeometry x="3900" y="1170" width="240" height="240" as="geometry" />
        </mxCell>
        <mxCell id="ZLh_hg9RJonWW1onElEf-113" value="&lt;div&gt;&lt;font face=&quot;Times New Roman&quot;&gt;&lt;span style=&quot;font-size: 38px;&quot;&gt;Encoder tensors&lt;/span&gt;&lt;/font&gt;&lt;/div&gt;" style="shape=cube;whiteSpace=wrap;html=1;boundedLbl=1;backgroundOutline=1;darkOpacity=0.05;darkOpacity2=0.1;size=10;fillColor=#fff2cc;strokeColor=#d6b656;" vertex="1" parent="1">
          <mxGeometry x="4210" y="1170" width="240" height="240" as="geometry" />
        </mxCell>
        <mxCell id="ZLh_hg9RJonWW1onElEf-114" value="&lt;div&gt;&lt;font face=&quot;Times New Roman&quot;&gt;&lt;span style=&quot;font-size: 38px;&quot;&gt;Bridge tensor&lt;/span&gt;&lt;/font&gt;&lt;/div&gt;" style="shape=cube;whiteSpace=wrap;html=1;boundedLbl=1;backgroundOutline=1;darkOpacity=0.05;darkOpacity2=0.1;size=10;fillColor=#dae8fc;strokeColor=#6c8ebf;" vertex="1" parent="1">
          <mxGeometry x="4530" y="1170" width="240" height="240" as="geometry" />
        </mxCell>
        <mxCell id="ZLh_hg9RJonWW1onElEf-115" value="&lt;div&gt;&lt;font face=&quot;Times New Roman&quot;&gt;&lt;span style=&quot;font-size: 38px;&quot;&gt;Decoder tensors&lt;/span&gt;&lt;/font&gt;&lt;/div&gt;" style="shape=cube;whiteSpace=wrap;html=1;boundedLbl=1;backgroundOutline=1;darkOpacity=0.05;darkOpacity2=0.1;size=10;fillColor=#e1d5e7;strokeColor=#9673a6;" vertex="1" parent="1">
          <mxGeometry x="4850" y="1170" width="240" height="240" as="geometry" />
        </mxCell>
        <mxCell id="ZLh_hg9RJonWW1onElEf-116" value="&lt;div&gt;&lt;font face=&quot;Times New Roman&quot;&gt;&lt;span style=&quot;font-size: 38px;&quot;&gt;Attention-gate tensors&lt;/span&gt;&lt;/font&gt;&lt;/div&gt;" style="shape=cube;whiteSpace=wrap;html=1;boundedLbl=1;backgroundOutline=1;darkOpacity=0.05;darkOpacity2=0.1;size=10;fillColor=#d5e8d4;strokeColor=#82b366;" vertex="1" parent="1">
          <mxGeometry x="5170" y="1170" width="240" height="240" as="geometry" />
        </mxCell>
      </root>
    </mxGraphModel>
  </diagram>
</mxfile>
